<?xml version="1.0" encoding="UTF-8" standalone="no"?><!DOCTYPE svg PUBLIC "-//W3C//DTD SVG 1.1//EN" "http://www.w3.org/Graphics/SVG/1.1/DTD/svg11.dtd"><svg width="100%" height="100%" viewBox="0 0 517 180" version="1.1" xmlns="http://www.w3.org/2000/svg" xmlns:xlink="http://www.w3.org/1999/xlink" xml:space="preserve" xmlns:serif="http://www.serif.com/" style="fill-rule:evenodd;clip-rule:evenodd;stroke-linejoin:round;stroke-miterlimit:2;"><g><g id="World_Challenge"><path d="M82.917,143.75c0.417,0 0.417,0 0.417,0.417l-8.75,22.5c-1.667,3.75 -2.5,4.167 -6.667,4.167c-4.167,0 -5.417,-0.417 -5.833,-4.167l-1.25,-13.333l-5.833,13.333c-1.667,3.75 -2.5,4.167 -7.083,4.167c-4.583,0 -5,-0.417 -5,-4.167l-0.833,-22.5c0,-0.417 0,-0.417 0.833,-0.417l5,0c0,0 0.417,0 0.417,0.417l0.833,20c0,0.833 0,1.25 0.833,1.25c0.833,0 0.833,0 1.25,-1.25l8.333,-19.167c0,-0.417 0.417,-0.417 0.833,-0.417l4.583,0c0,0 0.833,0 0.833,0.417l1.667,19.167c0,0.833 0,1.25 0.833,1.25c0.833,0 0.833,0 1.25,-1.25l7.917,-20c0,-0.417 0,-0.417 0.833,-0.417l5,0l-0.417,0Z" style="fill:#040303;fill-rule:nonzero;"/><path d="M110,157.5c-2.083,10.833 -5,13.75 -15,13.75c-10,0 -12.083,-3.333 -10.417,-13.75c2.083,-10.833 5,-13.75 15,-13.75c10,0 12.083,3.333 10.417,13.75Zm-19.167,0c-1.25,6.667 -0.417,8.75 5,8.75c5.417,0 6.667,-2.083 7.917,-8.75c1.25,-7.083 0.417,-9.167 -5,-9.167c-5.417,0 -6.667,2.083 -7.917,9.167Z" style="fill:#040303;fill-rule:nonzero;"/><path d="M139.167,152.5c-0.833,5.417 -2.917,7.5 -7.5,8.333l5,9.583c0,0 0,0.833 -0.417,0.833l-5,0c-0.833,0 -1.25,0 -1.25,-0.833l-4.583,-9.167l-3.75,0l-1.667,9.167c0,0.417 0,0.417 -0.833,0.417l-5,0c-0.417,0 -0.417,0 -0.417,-0.417l4.583,-25.833c0,0 0,-0.417 0.833,-0.417l10.417,0c8.75,0 11.25,2.083 10,9.167l-0.417,-0.833Zm-15.417,-4.167l-1.667,8.333l4.167,0c4.583,0 5.833,-0.417 6.667,-4.167c0.833,-3.333 -0.417,-4.167 -5,-4.167l-4.167,0Z" style="fill:#040303;fill-rule:nonzero;"/><path d="M152.083,143.75c0,0 0.417,0 0.417,0.417l-3.75,22.083l12.917,0c0,0 0.417,0 0.417,0.417l-0.833,3.75c0,0 0,0.417 -0.833,0.417l-18.333,0c0,0 -0.417,0 -0.417,-0.417l4.583,-26.25c0,0 0,-0.417 0.833,-0.417l5,0Z" style="fill:#040303;fill-rule:nonzero;"/><path d="M191.25,157.083c-1.667,9.583 -5.833,13.75 -15,13.75l-11.25,0c-0.417,0 -0.417,0 -0.417,-0.417l4.583,-25.833c0,0 0,-0.417 0.833,-0.417l11.25,0c9.167,0 12.083,4.167 10.417,13.75l-0.417,-0.833Zm-16.667,-8.75l-3.333,17.917l5.833,0c4.583,0 7.083,-2.5 7.917,-9.167c1.25,-6.667 0,-9.167 -5,-9.167l-5.417,0l0,0.417Z" style="fill:#040303;fill-rule:nonzero;"/><path d="M228.75,144.167c0.417,0 0.833,0 0.833,0.833l0,2.917c-0.417,0 -0.833,0.417 -1.25,0.417l-7.917,0c-5.417,0 -6.667,2.083 -7.917,9.167c-1.25,6.667 -0.833,9.167 4.583,9.167l7.917,0c0,0 0.417,0 0.417,0.417l0,2.917c-0.417,0.417 -0.833,0.833 -1.667,0.833c-2.083,0 -4.583,0.417 -7.917,0.417c-10,0 -12.083,-3.333 -10,-13.75c2.083,-10.833 5,-13.75 15,-13.75c10,0 5.833,0 7.5,0.417l0.417,-0Z" style="fill:#040303;fill-rule:nonzero;"/><path d="M257.5,143.75c0,0 0.417,0 0.417,0.417l-4.583,26.25c0,0 0,0.417 -0.833,0.417l-5,0c0,0 -0.417,0 -0.417,-0.417l2.083,-10.833l-12.917,0l-2.083,10.833c0,0 0,0.417 -0.833,0.417l-5,0c0,0 -0.417,0 -0.417,-0.417l4.583,-26.25c0,0 0,-0.417 0.833,-0.417l5,0c0,0 0.417,0 0.417,0.417l-2.083,10.417l12.917,0l2.083,-10.417c0,0 0,-0.417 0.833,-0.417l5,0Z" style="fill:#040303;fill-rule:nonzero;"/><path d="M281.667,147.5l2.917,22.5c0,0.417 0,0.417 -0.833,0.417l-5,0l-0.417,-0.417l-0.833,-7.5l-10.417,0l-3.75,7.5c0,0.417 0,0.417 -0.833,0.417l-5,0c-0.417,0 -0.417,0 0,-0.417l10.833,-22.5c2.083,-3.75 2.917,-4.167 7.083,-4.167c4.167,0 5.417,0 5.833,4.167l0.417,0Zm-7.917,1.667l-4.583,9.167l7.5,0l-1.25,-9.167c0,-0.833 0,-0.833 -0.833,-0.833c-0.833,0 -0.833,0 -1.25,0.833l0.417,0Z" style="fill:#040303;fill-rule:nonzero;"/><path d="M299.167,143.75c0,0 0.417,0 0.417,0.417l-3.75,22.083l12.917,0c0,0 0.417,0 0.417,0.417l-0.833,3.75c0,0 0,0.417 -0.833,0.417l-18.333,0c0,0 -0.417,0 -0.417,-0.417l4.583,-26.25c0,0 0,-0.417 0.833,-0.417l5,0Z" style="fill:#040303;fill-rule:nonzero;"/><path d="M321.667,143.75c0,0 0.417,0 0.417,0.417l-3.75,22.083l12.917,0c0,0 0.417,0 0.417,0.417l-0.833,3.75c0,0 0,0.417 -0.833,0.417l-18.333,0c0,0 -0.417,0 -0.417,-0.417l4.583,-26.25c0,0 0,-0.417 0.833,-0.417l5,0Z" style="fill:#040303;fill-rule:nonzero;"/><path d="M358.75,143.75c0,0 0.417,0 0.417,0.417l-0.833,3.75c0,0 0,0.417 -0.833,0.417l-14.167,0l-1.25,6.667l12.917,0c0,0 0.417,0 0.417,0.417l-0.833,3.75c0,0 0,0.417 -0.833,0.417l-12.917,0l-1.25,6.25l14.167,0c0,0 0.417,0 0.417,0.417l-0.833,3.75c0,0 0,0.417 -0.833,0.417l-19.583,0c0,0 -0.417,0 -0.417,-0.417l4.583,-26.25c0,0 0,-0.417 0.833,-0.417l19.583,0l1.25,0.417Z" style="fill:#040303;fill-rule:nonzero;"/><path d="M389.583,143.75c0,0 0.417,0 0.417,0.417l-4.583,26.25c0,0 0,0.417 -0.833,0.417l-3.75,0c-0.833,0 -1.25,0 -1.667,-0.833l-10,-17.083l-2.917,17.083c0,0 0,0.417 -0.833,0.417l-5,0c0,0 -0.417,0 -0.417,-0.417l4.583,-26.25c0,0 0,-0.417 0.833,-0.417l3.75,0c1.667,0 1.667,0 2.083,1.25l9.167,15.833l2.917,-16.667c0,0 0,-0.417 0.833,-0.417l5,0l0.417,0.417Z" style="fill:#040303;fill-rule:nonzero;"/><path d="M416.667,144.167c0.417,0 0.833,0 0.833,0.833l0,2.917c-0.417,0 -0.833,0.417 -1.25,0.417l-8.75,0c-5.417,0 -6.667,2.083 -7.917,9.167c-1.25,6.667 -0.833,9.167 4.583,9.167l5,0l1.25,-8.333c0,0 0,-0.417 0.833,-0.417l4.583,0c0,0 0.417,0 0.417,0.417l-1.667,10l0,0.833c-1.25,1.25 -6.25,2.083 -10.833,2.083c-10,0 -12.083,-3.333 -10,-13.75c2.083,-10.833 5,-13.75 15,-13.75c10,0 6.25,0 8.333,0.417l-0.417,-0Z" style="fill:#040303;fill-rule:nonzero;"/><path d="M445,143.75c0,0 0.417,0 0.417,0.417l-0.833,3.75c0,0 0,0.417 -0.833,0.417l-14.167,0l-1.25,6.667l12.917,0c0,0 0.417,0 0.417,0.417l-0.833,3.75c0,0 0,0.417 -0.833,0.417l-12.917,0l-1.25,6.25l14.167,0c0,0 0.417,0 0.417,0.417l-0.833,3.75c0,0 0,0.417 -0.833,0.417l-19.583,0c0,0 -0.417,0 -0.417,-0.417l4.583,-26.25c0,0 0,-0.417 0.833,-0.417l19.583,0l1.25,0.417Z" style="fill:#040303;fill-rule:nonzero;"/></g><g id="GT"><g><g><path d="M243.333,116.667l90.417,-89.167l-221.667,0c-40.833,0 -77.5,25 -90.417,34.583c8.333,-8.333 26.25,-25.833 34.583,-34.167c12.917,-12.917 25.417,-19.583 54.583,-19.583l400.833,0l-12.083,12.083c-4.583,4.583 -10.833,7.083 -17.083,7.083l-84.167,0c-0.833,0.833 -70,69.167 -76.25,75.417c-9.167,8.75 -21.667,13.75 -35,13.75l-43.75,0Z" style="fill:url(#_Linear1);fill-rule:nonzero;"/><path d="M510.833,8.75l-11.667,11.25c-4.583,4.583 -10.417,7.083 -17.083,7.083l-84.583,0c-0.833,0.833 -70,69.167 -76.25,75.417c-9.167,8.75 -21.667,13.75 -35,13.75l-42.083,0l89.583,-88.333l1.25,-1.25l-222.917,0c-26.25,0 -50.417,10.417 -66.667,19.167c-8.333,4.583 -15.417,9.167 -20.417,12.917c9.167,-8.75 23.75,-23.75 31.25,-30.833c7.5,-7.5 14.167,-12.083 22.083,-15c8.333,-3.333 18.333,-4.583 32.083,-4.583l400,0m1.667,-0.417l-401.25,0c-27.5,0 -40.417,5.833 -54.583,19.583c-11.25,10.833 -38.75,38.333 -38.75,38.333c0,0 44.583,-38.333 95,-38.333l221.25,0l-90.417,89.167l43.75,0c12.917,0 25.833,-5 35.417,-14.167c6.667,-6.25 76.25,-75.417 76.25,-75.417l84.167,-0c6.667,0 12.917,-2.5 17.5,-7.083l12.5,-12.5l-0.833,0.417Z" style="fill:#ee2e24;fill-rule:nonzero;"/></g><path d="M277.083,46.667l-115.833,0c-7.083,0 -13.75,2.917 -18.75,7.917l-6.667,6.667l76.25,0c-28.333,27.917 -28.75,27.917 -59.583,27.917l-58.333,0l-28.333,27.917l117.5,0c11.667,0 26.25,-4.583 36.25,-14.583l56.667,-56.25l0.833,0.417Z" style="fill:#ee2e24;fill-rule:nonzero;"/></g><path d="M120.417,42.5c10,-10 20.833,-14.583 34.167,-14.583l-42.5,0c-50.417,0 -95,38.333 -95,38.333l-6.667,6.667l79.583,0l30.417,-30.417Z" style="fill:url(#_Linear2);fill-rule:nonzero;"/></g></g><g id="EUROPE"></g><defs><linearGradient id="_Linear1" x1="0" y1="0" x2="1" y2="0" gradientUnits="userSpaceOnUse" gradientTransform="matrix(390.416667,-225.416667,225.416667,390.416667,69.166667,143.75)"><stop offset="0" style="stop-color:#ee2e24;stop-opacity:1"/><stop offset="0.6" style="stop-color:#ee2e24;stop-opacity:1"/><stop offset="0.7" style="stop-color:#d2241b;stop-opacity:1"/><stop offset="0.8" style="stop-color:#a2150c;stop-opacity:1"/><stop offset="0.9" style="stop-color:#850b03;stop-opacity:1"/><stop offset="1" style="stop-color:#7a0800;stop-opacity:1"/></linearGradient><linearGradient id="_Linear2" x1="0" y1="0" x2="1" y2="0" gradientUnits="userSpaceOnUse" gradientTransform="matrix(-14.583333,-36.666667,36.666667,-14.583333,88.333333,64.583333)"><stop offset="0" style="stop-color:#ee2e24;stop-opacity:1"/><stop offset="0.2" style="stop-color:#cb261e;stop-opacity:1"/><stop offset="0.5" style="stop-color:#9b1c17;stop-opacity:1"/><stop offset="0.8" style="stop-color:#7e1613;stop-opacity:1"/><stop offset="0.9" style="stop-color:#731412;stop-opacity:1"/><stop offset="1" style="stop-color:#731412;stop-opacity:1"/></linearGradient></defs></svg>