<?xml version="1.0" encoding="UTF-8"?>
<svg version="1.1" xmlns="http://www.w3.org/2000/svg" width="356" height="102">
<path d="M0 0 C1.25886772 -0.00021904 1.25886772 -0.00021904 2.54316711 -0.0004425 C5.31892475 0.00025452 8.0946154 0.0080371 10.87036133 0.01586914 C12.79421451 0.01773407 14.71806817 0.01915762 16.641922 0.02015686 C21.7070344 0.02397615 26.77211816 0.03380145 31.83721924 0.04486084 C37.0051637 0.05508758 42.17311279 0.05965719 47.34106445 0.06469727 C57.48235308 0.07542422 67.62362045 0.09249362 77.76489258 0.11352539 C76.95362179 2.23899498 76.1408386 4.36388735 75.32739258 6.48852539 C74.64870117 8.26356445 74.64870117 8.26356445 73.95629883 10.07446289 C72.76489258 13.11352539 72.76489258 13.11352539 71.76489258 15.11352539 C71.04270538 15.11939163 70.32051819 15.12525787 69.57644653 15.13130188 C62.77800517 15.18915143 55.97984694 15.26118312 49.18173409 15.3492403 C45.68652771 15.39401149 42.1914397 15.43325208 38.69604492 15.45996094 C34.67962858 15.49089129 30.66384891 15.54568182 26.64770508 15.60180664 C25.38934845 15.60819656 24.13099182 15.61458649 22.83450317 15.62117004 C21.67345062 15.6409642 20.51239807 15.66075836 19.31616211 15.68115234 C17.77727829 15.69780693 17.77727829 15.69780693 16.20730591 15.71479797 C15.40130951 15.84637802 14.59531311 15.97795807 13.76489258 16.11352539 C13.10489258 17.10352539 12.44489258 18.09352539 11.76489258 19.11352539 C13.32141056 20.67004338 14.82511619 20.25352621 16.98999023 20.27124023 C17.88827545 20.28150238 18.78656067 20.29176453 19.71206665 20.30233765 C20.69113983 20.30963898 21.67021301 20.31694031 22.67895508 20.32446289 C24.74016072 20.35254719 26.80135853 20.38121175 28.86254883 20.41040039 C32.12117159 20.45156813 35.37965047 20.48844226 38.63842773 20.51489258 C41.77724788 20.54259788 44.91539595 20.58848936 48.05395508 20.63696289 C49.02088287 20.64021576 49.98781067 20.64346863 50.98403931 20.64682007 C56.66750395 20.74947502 60.70483624 21.48529878 65.76489258 24.11352539 C66.19108243 31.24510216 65.07627471 35.95850604 62.01489258 42.36352539 C61.6668457 43.13954102 61.31879883 43.91555664 60.96020508 44.71508789 C56.21257762 55.01919785 56.21257762 55.01919785 50.15820312 57.72602844 C45.77876107 59.2876164 41.85233222 59.52070264 37.23754883 59.45410156 C36.02147697 59.45475868 36.02147697 59.45475868 34.78083801 59.45542908 C32.12943538 59.45335675 29.47868329 59.43010026 26.82739258 59.40649414 C24.97794948 59.40089263 23.1285019 59.39662516 21.27905273 59.39363098 C16.43255123 59.38222588 11.58632329 59.35279634 6.7399292 59.31951904 C1.78604838 59.28872435 -3.16787704 59.27510562 -8.12182617 59.26000977 C-17.82637285 59.22792221 -27.53071731 59.17677872 -37.23510742 59.11352539 C-36.78428273 57.6528534 -36.32417205 56.19504507 -35.86010742 54.73852539 C-35.60487305 53.92641602 -35.34963867 53.11430664 -35.08666992 52.27758789 C-34.23510742 50.11352539 -34.23510742 50.11352539 -32.23510742 48.11352539 C-29.71435547 47.55102539 -29.71435547 47.55102539 -26.49682617 47.11352539 C-25.29719238 46.94997559 -24.09755859 46.78642578 -22.86157227 46.61791992 C-21.56171387 46.45146973 -20.26185547 46.28501953 -18.92260742 46.11352539 C-18.26270813 46.02504333 -17.60280884 45.93656128 -16.9229126 45.84539795 C-9.26966825 44.81969114 -1.64806946 44.00464525 6.06567383 43.62133789 C7.37947021 43.55301758 8.6932666 43.48469727 10.046875 43.41430664 C12.57069056 43.29886625 15.09585961 43.20949066 17.62158203 43.14868164 C18.76457764 43.0984082 19.90757324 43.04813477 21.08520508 42.99633789 C22.58978271 42.95597412 22.58978271 42.95597412 24.12475586 42.91479492 C27.91949707 41.76310816 28.88775804 39.47386924 30.76489258 36.11352539 C29.68111328 36.24404297 28.59733398 36.37456055 27.48071289 36.5090332 C2.58880809 39.50358312 -22.31159482 42.39421932 -47.23510742 45.11352539 C-45.67374056 48.35974982 -43.87030508 50.98740484 -41.61010742 53.80102539 C-38.23510742 58.00944376 -38.23510742 58.00944376 -38.23510742 59.11352539 C-43.27041705 59.23739759 -48.3048344 59.32799053 -53.34130859 59.38818359 C-55.05337987 59.41328253 -56.76534446 59.44736968 -58.47705078 59.49072266 C-60.94224387 59.55158278 -63.40601728 59.57977971 -65.87182617 59.60180664 C-66.6334758 59.62761307 -67.39512543 59.65341949 -68.17985535 59.68000793 C-72.22537421 59.68212881 -73.99200856 59.31079083 -77.17456055 56.72827148 C-79.23510742 54.11352539 -79.23510742 54.11352539 -80.56713867 51.78930664 C-82.2553335 49.72117092 -82.2553335 49.72117092 -85.74682617 49.90649414 C-87.14074986 50.01481199 -88.53293067 50.14755054 -89.92260742 50.30102539 C-90.64359619 50.36999023 -91.36458496 50.43895508 -92.10742188 50.51000977 C-94.15031768 50.70776153 -96.1927296 50.91049374 -98.23510742 51.11352539 C-99.11166992 51.1096582 -99.98823242 51.10579102 -100.89135742 51.10180664 C-103.17518922 51.01901068 -103.17518922 51.01901068 -106.23510742 52.11352539 C-108.71010742 56.56852539 -108.71010742 56.56852539 -111.23510742 61.11352539 C-122.45510742 61.11352539 -133.67510742 61.11352539 -145.23510742 61.11352539 C-144.57510742 60.12352539 -143.91510742 59.13352539 -143.23510742 58.11352539 C-153.10867763 58.6470112 -162.63524164 60.64666659 -172.29760742 62.61352539 C-174.6880534 63.09903547 -177.07880317 63.58265986 -179.47080994 64.0604248 C-180.94663646 64.35524343 -182.42163109 64.65427562 -183.89552307 64.95861816 C-193.4524704 66.86923427 -202.85787878 67.25742586 -212.58666992 67.21118164 C-213.72671478 67.20976669 -214.86675964 67.20835175 -216.04135132 67.20689392 C-219.64763116 67.20134018 -223.25384666 67.18879646 -226.86010742 67.17602539 C-229.31974194 67.17100441 -231.77937743 67.16644255 -234.23901367 67.16235352 C-240.23773318 67.15138594 -246.2364157 67.13469453 -252.23510742 67.11352539 C-251.90510742 66.12352539 -251.57510742 65.13352539 -251.23510742 64.11352539 C-242.26991043 59.96649872 -230.78911849 59.54514729 -221.08276367 58.19946289 C-220.16608477 58.07040936 -219.24940586 57.94135582 -218.30494881 57.80839157 C-199.02515443 55.10028785 -179.7008535 52.96258854 -160.33219528 51.00771713 C-156.66827258 50.63687105 -153.00491595 50.26057675 -149.3415308 49.88446331 C-140.75082582 49.00256786 -132.15931051 48.12895456 -123.56713867 47.26147461 C-116.17032879 46.51458066 -108.77450135 45.75885279 -101.37963867 44.99291992 C-40.04011867 38.64154026 -40.04011867 38.64154026 -12.61010742 36.72680664 C-11.93333954 36.67956137 -11.25657166 36.63231609 -10.55929565 36.58363914 C2.87581724 35.65595315 16.32103057 34.90628384 29.76489258 34.11352539 C11.28489258 34.11352539 -7.19510742 34.11352539 -26.23510742 34.11352539 C-27.52031885 27.68746824 -25.9059435 24.88892307 -23.23510742 19.11352539 C-22.68983398 17.91856445 -22.14456055 16.72360352 -21.58276367 15.49243164 C-20.99034703 14.23987968 -20.39530417 12.98856638 -19.79760742 11.73852539 C-19.24202148 10.57579102 -18.68643555 9.41305664 -18.11401367 8.21508789 C-13.54845196 0.67858893 -8.22118978 -0.0372552 0 0 Z " fill="#E10C1F" transform="translate(252.235107421875,-0.113525390625)"/>
<path d="M0 0 C11.37011129 -0.06954598 22.74017188 -0.12283473 34.11045265 -0.15543652 C39.3902806 -0.17108465 44.6699629 -0.19230755 49.94970703 -0.22631836 C55.04605921 -0.25894192 60.14227139 -0.27685943 65.23871994 -0.28463173 C67.18196186 -0.29016983 69.12519621 -0.30098441 71.06837845 -0.31719017 C73.79266093 -0.33900418 76.51636673 -0.34196525 79.24072266 -0.34057617 C80.44266266 -0.35675491 80.44266266 -0.35675491 81.66888428 -0.3732605 C87.46580092 -0.34132962 91.75467524 0.75467524 96 5 C96.67681744 13.0894353 93.10241276 20.16394559 89.6875 27.25 C88.95756836 28.82394531 88.95756836 28.82394531 88.21289062 30.4296875 C81.67663023 44.3291376 81.67663023 44.3291376 77.25080872 46.10002136 C74.11218032 46.96894315 71.2035965 47.45902146 67.9675293 47.7902832 C66.7921611 47.91430511 65.61679291 48.03832703 64.4058075 48.16610718 C63.14138321 48.29304962 61.87695892 48.41999207 60.57421875 48.55078125 C59.23602941 48.6906122 57.89792137 48.83122307 56.55989075 48.9725647 C53.73066442 49.27071265 50.90113126 49.56563532 48.07128906 49.85787964 C40.78881632 50.61123144 33.50910761 51.39021633 26.23046875 52.1796875 C25.51798351 52.25692236 24.80549828 52.33415722 24.07142258 52.41373253 C8.30446671 54.13069532 -7.37072287 56.29974298 -23 59 C-22.41685865 53.45821524 -20.41615147 49.00923701 -18.10546875 44.015625 C-17.71684158 43.15998962 -17.32821442 42.30435425 -16.92781067 41.42279053 C-15.68772124 38.69542281 -14.43811129 35.97255691 -13.1875 33.25 C-11.94929555 30.54098952 -10.71317188 27.8310538 -9.47932434 25.12005615 C-8.71309753 23.43794248 -7.94415399 21.75706245 -7.17192078 20.07769775 C-2.17132972 10.38665287 -2.17132972 10.38665287 0 0 Z M32.87475586 14.97436523 C30.46256276 14.98854656 30.46256276 14.98854656 27 16 C25.09394828 18.56985082 24.01132567 20.43584768 22.8125 23.3125 C22.50892578 23.97056641 22.20535156 24.62863281 21.89257812 25.30664062 C20.885097 27.52141646 19.93800996 29.75489066 19 32 C18.33170166 33.59400635 18.33170166 33.59400635 17.64990234 35.22021484 C16.42810709 38.1447019 15.21172563 41.07132912 14 44 C18.52081966 44.02917237 23.04161488 44.0468568 27.5625 44.0625 C28.83931641 44.07087891 30.11613281 44.07925781 31.43164062 44.08789062 C32.67236328 44.09111328 33.91308594 44.09433594 35.19140625 44.09765625 C36.32779541 44.10289307 37.46418457 44.10812988 38.63500977 44.11352539 C45.26877302 44.18092849 45.26877302 44.18092849 50.78515625 41.2421875 C57.74044703 29.19884954 57.74044703 29.19884954 61 16 C51.5870454 14.7328715 42.33154024 15.08843328 32.87475586 14.97436523 Z " fill="#E10C1F" transform="translate(27,0)"/>
<path d="M0 0 C11.61360899 -0.06957658 23.2271682 -0.12285027 34.84094334 -0.15543652 C40.23396236 -0.17107798 45.62683856 -0.19228869 51.01977539 -0.22631836 C56.2263574 -0.25896572 61.4328022 -0.27686444 66.63947868 -0.28463173 C68.62375993 -0.29016556 70.60803386 -0.30097181 72.59225655 -0.31719017 C75.37620267 -0.33903579 78.15958517 -0.34196393 80.94360352 -0.34057617 C81.76000305 -0.351362 82.57640259 -0.36214783 83.4175415 -0.3732605 C88.67605183 -0.34498281 92.33154595 0.53033245 97 3 C99.25795602 6.0045868 99.00860778 6.92498934 98.5625 10.8125 C97.40095845 15.38989073 95.53038063 19.59867366 93.5625 23.875 C93.262229 24.52960205 92.96195801 25.1842041 92.65258789 25.85864258 C89.5876196 32.28250303 89.5876196 32.28250303 87 34 C80.56732233 35.86877545 74.18010229 36.6889765 67.53125 37.40234375 C65.87832947 37.58596718 65.87832947 37.58596718 64.1920166 37.77330017 C60.62862857 38.16724626 57.06439623 38.55279144 53.5 38.9375 C51.05336947 39.20509512 48.60675493 39.47283651 46.16015625 39.74072266 C32.78136271 41.19801736 19.39870087 42.61256886 6 43.875 C4.73478516 43.99480225 3.46957031 44.11460449 2.16601562 44.23803711 C-2.91583549 44.70063964 -7.89342505 45.0537435 -13 45 C-10.68433942 35.97177298 -6.86350752 27.76584126 -2.88671875 19.36352539 C-2.05326926 17.59553736 -1.23732009 15.81933275 -0.421875 14.04296875 C0.31144043 12.48098755 0.31144043 12.48098755 1.05957031 10.88745117 C2.43563218 6.66245539 1.36579117 4.09737352 0 0 Z M30 15 C28.30646579 17.43952811 28.30646579 17.43952811 27.1875 20.4375 C26.76855469 21.42621094 26.34960938 22.41492188 25.91796875 23.43359375 C24.88773657 25.85958674 24.88773657 25.85958674 25 28 C29.60805521 28.12394421 34.21513281 28.21449675 38.82446289 28.2746582 C40.39104114 28.29974547 41.95750299 28.33382415 43.52368164 28.37719727 C45.78040309 28.43811226 48.03557294 28.46626499 50.29296875 28.48828125 C50.98899704 28.51408768 51.68502533 28.5398941 52.40214539 28.56648254 C56.28477977 28.56870317 57.85246509 28.12040548 60.8996582 25.63354492 C63.71761253 22.10021082 65 19.53002046 65 15 C47.27632769 12.89954017 47.27632769 12.89954017 30 15 Z " fill="#E10C1F" transform="translate(129,0)"/>
<path d="M0 0 C6.93 0 13.86 0 21 0 C20.67 6.6 20.34 13.2 20 20 C23.39592963 15.66364941 23.39592963 15.66364941 26.78979492 11.32568359 C27.71641498 10.14441067 28.65436237 8.97197967 29.6003418 7.80615234 C31.0160143 6.05069015 31.0160143 6.05069015 32.08129883 4.21337891 C33.15625 2.5625 33.15625 2.5625 36 0 C39.79908343 -0.72237425 43.46354133 -0.56707855 47.3125 -0.375 C48.33923828 -0.34792969 49.36597656 -0.32085937 50.42382812 -0.29296875 C52.95137576 -0.22243254 55.47460043 -0.12393429 58 0 C56.56476862 4.64764973 54.68950367 8.97073689 52.55859375 13.33203125 C52.23085464 14.00924728 51.90311554 14.68646332 51.56544495 15.38420105 C50.87716365 16.80442646 50.18710792 18.22379318 49.49536133 19.64233398 C48.43322096 21.8212783 47.37733708 24.00317233 46.32226562 26.18554688 C45.65140599 27.5678852 44.9801946 28.95005289 44.30859375 30.33203125 C43.83358681 31.31318657 43.83358681 31.31318657 43.34898376 32.31416321 C41.1158216 36.8841784 41.1158216 36.8841784 40 38 C35.66469082 38.14393457 31.33842269 38.04212061 27 38 C29.97 31.4 32.94 24.8 36 18 C31.93958484 22.03394572 31.93958484 22.03394572 28.17578125 26.26171875 C27.70462891 26.82310547 27.23347656 27.38449219 26.74804688 27.96289062 C26.03745117 28.81657227 26.03745117 28.81657227 25.3125 29.6875 C20.22466216 35.77533784 20.22466216 35.77533784 18 38 C14.04 38 10.08 38 6 38 C6.33 30.08 6.66 22.16 7 14 C3.04 21.92 -0.92 29.84 -5 38 C-9.29 38 -13.58 38 -18 38 C-16.39893473 33.1968042 -14.5793381 28.89423462 -12.3046875 24.4140625 C-11.95238068 23.71227875 -11.60007385 23.010495 -11.23709106 22.28744507 C-10.12016304 20.06470966 -8.99768046 17.84483451 -7.875 15.625 C-7.11291144 14.11086316 -6.35118888 12.59654204 -5.58984375 11.08203125 C-3.731463 7.38551354 -1.86558444 3.69292228 0 0 Z " fill="#FBFBFB" transform="translate(158,64)"/>
<path d="M0 0 C5.21443333 -0.02470935 10.42883261 -0.04286444 15.64331055 -0.05493164 C17.41740513 -0.059962 19.19149556 -0.06678699 20.96557617 -0.07543945 C23.51482161 -0.08756174 26.06401226 -0.09324126 28.61328125 -0.09765625 C29.80405022 -0.10539818 29.80405022 -0.10539818 31.01887512 -0.11329651 C34.27656286 -0.11362877 36.88681521 -0.03772826 40 1 C41.39787963 3.79575925 41.19172147 5.89453881 41 9 C39.67694815 12.83580802 37.77173044 16.38428824 35.9375 20 C35.47150391 20.97195312 35.00550781 21.94390625 34.52539062 22.9453125 C31.24240706 29.50234634 27.69044724 34.65477638 21 38 C18.08300726 38.08698228 15.19017452 38.11551923 12.2734375 38.09765625 C10.97921371 38.09553383 10.97921371 38.09553383 9.65884399 38.09336853 C6.8975277 38.08776188 4.13629188 38.07520827 1.375 38.0625 C-0.4947905 38.05748586 -2.36458226 38.0529228 -4.234375 38.04882812 C-8.82294777 38.03779029 -13.41146023 38.0205212 -18 38 C-16.70533043 33.89920057 -15.1823494 30.06620412 -13.3203125 26.19140625 C-12.80339844 25.11439453 -12.28648437 24.03738281 -11.75390625 22.92773438 C-11.21636719 21.81720703 -10.67882812 20.70667969 -10.125 19.5625 C-9.59519531 18.45583984 -9.06539063 17.34917969 -8.51953125 16.20898438 C-5.8559718 10.68028096 -3.07984842 5.30629975 0 0 Z M5 10 C5.33 10.66 5.66 11.32 6 12 C4.92276322 14.55953806 3.7947876 17.01685927 2.5625 19.5 C0.030656 24.05086351 0.030656 24.05086351 -1 29 C5.27 29 11.54 29 18 29 C19.299375 26.6075 20.59875 24.215 21.9375 21.75 C22.34605225 21.00331055 22.75460449 20.25662109 23.17553711 19.48730469 C23.4978833 18.88821289 23.82022949 18.28912109 24.15234375 17.671875 C24.48226318 17.0644043 24.81218262 16.45693359 25.15209961 15.83105469 C26.20718903 13.70269379 26.20718903 13.70269379 27 10 C19.74 10 12.48 10 5 10 Z " fill="#F9F9F9" transform="translate(271,64)"/>
<path d="M0 0 C1.92005859 -0.0309375 1.92005859 -0.0309375 3.87890625 -0.0625 C5.72935547 -0.07023437 5.72935547 -0.07023437 7.6171875 -0.078125 C8.74495605 -0.0874707 9.87272461 -0.09681641 11.03466797 -0.10644531 C14.45068196 0.28756483 16.34162866 1.28274664 19.125 3.25 C18.7663019 10.43421057 15.54219927 16.11918632 12.3125 22.4375 C11.77818359 23.51708984 11.24386719 24.59667969 10.69335938 25.70898438 C5.67057658 35.6618787 5.67057658 35.6618787 2.125 38.25 C-0.68300729 38.61144527 -3.08741955 38.74185077 -5.88671875 38.67578125 C-6.65554886 38.67249313 -7.42437897 38.66920502 -8.21650696 38.66581726 C-9.83623765 38.65541743 -11.45593167 38.63550288 -13.07543945 38.60668945 C-15.56417124 38.56247031 -18.05193898 38.54523239 -20.54101562 38.53320312 C-22.11459737 38.51978484 -23.68816717 38.50486346 -25.26171875 38.48828125 C-26.00959152 38.48089432 -26.75746429 38.47350739 -27.52799988 38.46589661 C-32.75668593 38.36831407 -32.75668593 38.36831407 -33.875 37.25 C-34.25702252 32.01613027 -33.51491414 28.64863728 -31.171875 23.984375 C-30.60339844 22.84742187 -30.03492188 21.71046875 -29.44921875 20.5390625 C-28.84722656 19.37117188 -28.24523437 18.20328125 -27.625 17 C-27.03149557 15.80521173 -26.43903816 14.60990276 -25.84765625 13.4140625 C-19.27514348 0.44627327 -14.03069931 0.05617898 0 0 Z M-12.875 10.25 C-13.205 11.9 -13.535 13.55 -13.875 15.25 C-14.84260924 17.33799888 -15.86703132 19.40031966 -16.9375 21.4375 C-19.10789952 25.16047153 -19.10789952 25.16047153 -19.875 29.25 C-13.935 29.25 -7.995 29.25 -1.875 29.25 C-2.205 28.59 -2.535 27.93 -2.875 27.25 C-2.25415039 25.46240234 -2.25415039 25.46240234 -1.22265625 23.3359375 C-0.85849609 22.57539062 -0.49433594 21.81484375 -0.11914062 21.03125 C0.27080078 20.2371875 0.66074219 19.443125 1.0625 18.625 C1.44857422 17.82320312 1.83464844 17.02140625 2.23242188 16.1953125 C3.18956479 14.2101272 4.15638777 12.2296145 5.125 10.25 C-0.815 10.25 -6.755 10.25 -12.875 10.25 Z " fill="#FCFCFC" transform="translate(241.875,63.75)"/>
<path d="M0 0 C1.47583955 0.0001591 2.95168467 0.00585225 4.42749023 0.01586914 C5.20293686 0.01728409 5.97838348 0.01869904 6.77732849 0.02015686 C9.26361893 0.02577194 11.74982059 0.03832693 14.23608398 0.05102539 C15.91772331 0.05603845 17.59936405 0.06060169 19.28100586 0.06469727 C23.41189965 0.07574626 27.54272674 0.09302094 31.67358398 0.11352539 C31.11016389 4.05746602 30.18138819 6.9762819 27.67358398 10.11352539 C25.12988281 10.77294922 25.12988281 10.77294922 22.13061523 10.82055664 C21.0574707 10.84956055 19.98432617 10.87856445 18.87866211 10.90844727 C17.19933594 10.91714844 17.19933594 10.91714844 15.48608398 10.92602539 C13.78935547 10.96373047 13.78935547 10.96373047 12.05834961 11.00219727 C9.26307869 11.06116923 6.46937723 11.09737572 3.67358398 11.11352539 C3.34358398 12.43352539 3.01358398 13.75352539 2.67358398 15.11352539 C8.94358398 15.11352539 15.21358398 15.11352539 21.67358398 15.11352539 C19.69358398 19.56852539 19.69358398 19.56852539 17.67358398 24.11352539 C7.77358398 24.60852539 7.77358398 24.60852539 -2.32641602 25.11352539 C-2.98641602 26.43352539 -3.64641602 27.75352539 -4.32641602 29.11352539 C2.93358398 29.11352539 10.19358398 29.11352539 17.67358398 29.11352539 C16.92231285 32.86988108 16.43352672 34.94562846 14.67358398 38.11352539 C10.13460693 38.13817931 5.59566855 38.15636328 1.05664062 38.16845703 C-0.48861367 38.17349679 -2.03386318 38.18032859 -3.57910156 38.18896484 C-5.7956663 38.20104615 -8.0121682 38.20675712 -10.22875977 38.21118164 C-11.27095924 38.21892357 -11.27095924 38.21892357 -12.33421326 38.2268219 C-13.99870931 38.22701816 -15.663071 38.17541668 -17.32641602 38.11352539 C-18.32641602 37.11352539 -18.32641602 37.11352539 -18.578125 33.98803711 C-18.29612744 29.64729866 -17.22233309 27.00631942 -15.29907227 23.12133789 C-14.99069931 22.48992889 -14.68232635 21.8585199 -14.36460876 21.20797729 C-13.3854613 19.21157013 -12.38738119 17.22532883 -11.38891602 15.23852539 C-10.721683 13.88235283 -10.05565519 12.52558661 -9.39086914 11.16821289 C-3.95729199 0.1350562 -3.95729199 0.1350562 0 0 Z " fill="#FAFAFA" transform="translate(324.326416015625,63.886474609375)"/>
</svg>
